<svg width="16" height="17" viewBox="0 0 16 17" fill="none" xmlns="http://www.w3.org/2000/svg">
    <path d="M4.66659 7.16699V4.50033C4.66659 3.61627 5.01777 2.76842 5.6429 2.1433C6.26802 1.51818 7.11586 1.16699 7.99992 1.16699C8.88397 1.16699 9.73182 1.51818 10.3569 2.1433C10.9821 2.76842 11.3333 3.61627 11.3333 4.50033V7.16699M1.33325 8.50033C1.33325 7.39576 2.22868 6.50033 3.33325 6.50033H12.6666C13.7712 6.50033 14.6666 7.39576 14.6666 8.50033V13.8337C14.6666 14.9382 13.7712 15.8337 12.6666 15.8337H3.33325C2.22868 15.8337 1.33325 14.9382 1.33325 13.8337V8.50033Z" stroke="#13A89E" stroke-width="1.5" stroke-linecap="round" stroke-linejoin="round"/>
</svg>
