<svg width="24" height="9" viewBox="0 0 24 9" fill="none" xmlns="http://www.w3.org/2000/svg">
    <path d="M23.4486 4.01185H22.0575C21.9191 3.67369 21.7731 3.40469 20.9969 3.40469C20.4589 3.40469 20.2283 3.62757 20.2283 3.85045C20.2283 4.09639 20.4205 4.29621 21.0123 4.42687L22.2727 4.76503C23.095 4.98791 23.4947 5.64118 23.4947 6.32519C23.4947 6.70947 23.4101 7.1706 23.0489 7.55488C22.7799 7.83924 22.3649 8.21584 20.9969 8.21584C19.1216 8.21584 18.4991 7.03226 18.4991 6.30982H19.9593C20.1054 6.83244 20.4589 7.03226 21.1736 7.03226C21.6655 7.03226 22.0882 6.8555 22.0882 6.47891C22.0882 6.11769 21.7808 5.98703 21.3888 5.87943L20.3974 5.61044C19.9209 5.46441 19.5213 5.34913 19.2369 5.11088C18.4991 4.48067 18.5529 3.35089 19.3522 2.76679C19.7979 2.444 20.2514 2.27492 20.9815 2.27492C21.8346 2.27492 22.3188 2.52086 22.7031 2.78216C23.0335 2.99736 23.4409 3.56609 23.4486 4.01185ZM0 0C0.0153711 0.0461132 2.90513 8.14667 2.90513 8.14667H4.63438L7.29357 1.40645H23.8175L23.9404 0H6.02546L3.81971 5.58738L1.83684 0H0ZM14.2874 5.23385L16.447 8.14667H17.7997V2.38252H16.2472V5.51821L14.2951 2.3902H12.8041V8.14667H14.2951V5.23385H14.2874ZM23.9942 7.84693C23.9942 7.67785 23.8559 7.53951 23.6868 7.53951C23.5177 7.53951 23.3794 7.67785 23.3794 7.84693C23.3794 8.01601 23.5177 8.15435 23.6868 8.15435C23.8559 8.15435 24.0019 8.01601 23.9942 7.84693C24.0019 7.84693 24.0019 7.84693 23.9942 7.84693ZM23.9635 7.84693C23.9635 7.99296 23.8405 8.11592 23.6945 8.11592C23.5485 8.11592 23.4255 7.99296 23.4255 7.84693C23.4255 7.70091 23.5485 7.57794 23.6945 7.57794C23.8405 7.57025 23.9635 7.68553 23.9635 7.84693C23.9635 7.83924 23.9635 7.83924 23.9635 7.84693ZM23.8328 7.77776C23.8328 7.71628 23.779 7.67016 23.7252 7.67016C23.7176 7.67016 23.7176 7.67016 23.7099 7.67016H23.5638V7.99296H23.633V7.88536H23.6868L23.756 7.99296H23.8405L23.7637 7.87767C23.8098 7.86999 23.8405 7.82387 23.8328 7.77776ZM23.7637 7.78545C23.7637 7.8085 23.7406 7.83156 23.7176 7.83156H23.7099H23.6407V7.73933H23.7099C23.7329 7.73165 23.7637 7.74702 23.7714 7.77008C23.7637 7.77776 23.7714 7.77776 23.7637 7.78545ZM6.06389 8.14667H7.72396L8.03138 7.24746H10.2218L10.5369 8.14667H12.1662L10.0757 2.3902H8.31575L6.06389 8.14667ZM8.49251 6.20223L9.1381 4.28853L9.76831 6.20223H8.49251Z" fill="#B7B7B7"/>
</svg>
